# xmcd
#
# Track frame offsets: 
#        150
#        13198
#        28601
#        41323
#        51586
#        68080
#        85710
#        98085
#        109779
#        122227
#        134323
#        151308
#        170000
#        184195
#        204904
#        222060
#        239241
#        256093
#        273345
#        283787
#        294267
#        313347
#
# Disc length: 4447 seconds
#
# Revision: 0
# Processed by: cddbd v1.5.2PL0 Copyright (c) Steve Scherf et al.
# Submitted via: ExactAudioCopy v1.0b3
#
DISCID=43115d16
DTITLE=Various Artist - Oh Happy Day
DYEAR=2010
DGENRE=Gospel
TTITLE0=Kate Smith - Nobody Knows The Trouble I've Seen
TTITLE1=The Jordanaires - All My Trials
TTITLE2=Mahalia Jackson - An Evening Prayer
TTITLE3=Golden Gate Quartet - God Almighty Said
TTITLE4=Harry Belafonte - Ezekiel
TTITLE5=The Cumberland Boys - Will The Circle Be Unbroken
TTITLE6=Kate Smith - Sometimes I Feel Like a Motherless Child
TTITLE7=Golden Gate Quartet - Babylon's Falling
TTITLE8=The Edwin Hawkins Singers - I Was Glad When They Said Unto Me
TTITLE9=Golden Gate Quartet - God Said He Would Calm The Ocean
TTITLE10=The Croydon Seventh Day Adventist Gospel Choir - I Still Have
TTITLE10=n't Found What I'm Looking For
TTITLE11=Golden Gate Quartet - Who Is God
TTITLE12=The Cumberland Boys - At The Cross
TTITLE13=Harry Belafonte - Were You There When They Crucified My Lord
TTITLE14=The Myra Walker Singers - Oh It Is Jesus
TTITLE15=The Johnny Thompson Singers - I Can Report Victory Over Sin
TTITLE16=Mahalia Jackson - Out Of The Depth
TTITLE17=Spirit of Freedom Singers - The Wayfaring Stranger
TTITLE18=The Jordanaires - Shadrack
TTITLE19=Kate Smith - The Lord's Prayer
TTITLE20=The Johnny Thompson Singers - I've Got The Right To Praise Th
TTITLE20=e Lord
TTITLE21=Golden Gate Quartet - Remember Me
EXTD=
EXTT0=
EXTT1=
EXTT2=
EXTT3=
EXTT4=
EXTT5=
EXTT6=
EXTT7=
EXTT8=
EXTT9=
EXTT10=
EXTT11=
EXTT12=
EXTT13=
EXTT14=
EXTT15=
EXTT16=
EXTT17=
EXTT18=
EXTT19=
EXTT20=
EXTT21=
PLAYORDER=
